<svg xmlns="http://www.w3.org/2000/svg" width="63" height="63" viewBox="0 0 63 63"><defs><style>.a{fill:#fff;}.b{fill:#7a94e9;}</style></defs><g transform="translate(-457.971 -431.686)"><circle class="a" cx="31.5" cy="31.5" r="31.5" transform="translate(457.971 431.686)"/><path class="b" d="M489.418,469.2v.005c8.993,0,16.1-7.252,16.313-16.635,0-.11,0-.22,0-.331A16.638,16.638,0,1,0,489.418,469.2ZM486.7,440.619h0c-1.882,9.17,8.784,6.824,15.267,12.156,0,.106,0,.211,0,.317a12.551,12.551,0,1,1-25.1-.317C487.745,448.936,481.68,442.538,486.7,440.619Z"/><path class="b" d="M505.729,474.528s-1.253-4.052-5.227-4.052H479.379a5.514,5.514,0,0,0-5.228,4.052l-5.4,12.369a31.467,31.467,0,0,0,41.45,0h-.073Z"/></g></svg>