<svg xmlns="http://www.w3.org/2000/svg" xmlns:xlink="http://www.w3.org/1999/xlink" width="93.416" height="120.577" viewBox="0 0 93.416 120.577"><defs><style>.a{fill:url(#a);}.b,.e{fill:#fff;}.b{stroke:#2347bd;stroke-width:0.5px;}.b,.d,.e{stroke-miterlimit:10;}.c{fill:#2347bd;}.d{fill:none;}.d,.e{stroke:#333;stroke-width:0.7px;}.f{fill:#333;}</style><linearGradient id="a" x1="-0.156" y1="0.425" x2="2.049" y2="0.935" gradientUnits="objectBoundingBox"><stop offset="0.114" stop-color="#2347bd" stop-opacity="0"/><stop offset="0.208" stop-color="#2347bd" stop-opacity="0.051"/><stop offset="0.364" stop-color="#2347bd" stop-opacity="0.184"/><stop offset="0.564" stop-color="#2347bd" stop-opacity="0.404"/><stop offset="0.796" stop-color="#2347bd" stop-opacity="0.706"/><stop offset="1" stop-color="#2347bd"/></linearGradient></defs><g transform="translate(-155.824 -75.674)"><path class="a" d="M243.3,93.835l-29.081-6.422-6.937,41.972,21.92-1.243Z"/><path class="b" d="M239.532,124.748l-10.333,3.4a1.578,1.578,0,0,1-2.117-1.552L229.568,98.4a1.526,1.526,0,0,1,1.047-1.293l10.538-3.619a1.579,1.579,0,0,1,2.137,1.554L240.6,123.457A1.528,1.528,0,0,1,239.532,124.748Z"/><path class="c" d="M239.846,124.852l-9.471,3.293a1.465,1.465,0,0,1-1.941-1.505l2.279-27.345a1.464,1.464,0,0,1,.96-1.255l9.659-3.51a1.465,1.465,0,0,1,1.959,1.507L240.824,123.6A1.464,1.464,0,0,1,239.846,124.852Z"/><path class="d" d="M212.48,92.336s2.212,20.792-6.083,28.313c0,0-9.18,7.521-13.715-7.963"/><path class="d" d="M185.936,108.041s2.765,11.281.442,19.686"/><path class="d" d="M207.392,99.414s5.309,13.161.553,12.387a6.338,6.338,0,0,1-4.092-1.216"/><line class="d" y2="6.14" transform="translate(204.88 121.588)"/><path class="d" d="M181.954,125.847s16.125,10.839,27.97-1.769"/><path class="d" d="M187.073,124.078s-31.552,5.087-30.888,49.548l24.221-2.655-.332-23.889"/><path class="d" d="M204.88,123.193s15.342-3.982,29.388,21.014c0,0-5.862,11.17-8.848,12.387"/><path class="d" d="M220.222,140.778s8.1,19.848,10.132,51.675"/><path class="e" d="M232.836,146.8l2.759,5.258s3.981-18.47,3.871-23.889,0-6.968-.664-9.291-9.954-16.921,2.1-18.027c0,0,7.078,1.216,5.308,17.7a67.911,67.911,0,0,0,.919,10.926c.961,5.332,5.979,49.018-7.147,48.8,0,0-4.972,1-11.648-4.645"/><line class="d" x2="3.332" y2="23.021" transform="translate(160.256 173.18)"/><line class="d" x2="1.763" y2="24.889" transform="translate(177.302 171.312)"/><path class="f" d="M210.85,80.691S226.027,75.9,225.117,85.5c0,0-8.712,12.957-28.7,4.313,0,0-.91,13.586-7.38,9.992,0,0-5.482-1.318-.955,5.825a3.7,3.7,0,0,1,.507,1.248c.313,1.563.828,5.235-.965,6.327,0,0-18.925-16.639-4-33.019C183.624,80.188,195.225,69.7,210.85,80.691Z"/></g></svg>