<svg xmlns="http://www.w3.org/2000/svg" width="84.253" height="120.577" viewBox="0 0 84.253 120.577"><defs><style>.a{fill:none;}.a,.c{stroke:#333;stroke-miterlimit:10;stroke-width:0.7px;}.b{fill:#333;}.c{fill:#fff;}</style></defs><g transform="translate(-467.52 -408.284)"><path class="a" d="M524.175,424.946s2.212,20.793-6.083,28.313c0,0-9.179,7.521-13.714-7.963"/><path class="a" d="M497.632,440.651s2.765,11.281.442,19.687"/><path class="a" d="M519.088,432.024s5.309,13.162.553,12.387a6.331,6.331,0,0,1-4.092-1.216"/><line class="a" y2="6.14" transform="translate(516.576 454.198)"/><path class="a" d="M493.65,458.457s16.124,10.839,27.97-1.769"/><path class="a" d="M498.768,456.688s-31.551,5.087-30.887,49.548l24.221-2.654-.332-23.89"/><path class="a" d="M516.576,455.8s15.341-3.981,29.387,21.014c0,0-5.861,11.17-8.848,12.387"/><path class="a" d="M531.917,473.388s8.1,19.848,10.133,51.675"/><line class="a" x2="3.332" y2="23.021" transform="translate(471.952 505.79)"/><line class="a" x2="1.763" y2="24.889" transform="translate(488.998 503.922)"/><path class="b" d="M522.546,413.3s15.176-4.794,14.267,4.811c0,0-8.713,12.957-28.7,4.313,0,0-.909,13.587-7.379,9.992,0,0-5.482-1.317-.956,5.825a3.685,3.685,0,0,1,.508,1.248c.313,1.563.827,5.235-.965,6.327,0,0-18.925-16.639-4-33.019C495.32,412.8,506.921,402.313,522.546,413.3Z"/><path class="c" d="M544.077,480.2s8.791,25.126,7.132,44.864"/><path class="b" d="M505.863,430.491s8.738-.388,11.89,2.543c0,0-1.991,9.125-7.742,6.36S505.863,430.491,505.863,430.491Z"/><path class="b" d="M519.442,432.213s5.585-2.323,6.636-1.438.719,8.122-4.756,8.761C521.322,439.536,519.94,432.987,519.442,432.213Z"/><path class="b" d="M516.13,434.822s2.5-1.94,3.86-.975l.311,1.208s-4.28.422-4.926,1.508S516.13,434.822,516.13,434.822Z"/><path class="b" d="M505.863,430.491H497.4l-1.991,3.087,1.383,1.068,1.935-2.986,7.521,1.918"/></g></svg>