<svg xmlns="http://www.w3.org/2000/svg" width="84.253" height="120.577" viewBox="0 0 84.253 120.577"><defs><style>.a{fill:none;}.a,.c{stroke:#333;stroke-miterlimit:10;stroke-width:0.7px;}.b,.d{fill:#333;}.c{fill:#fff;}.d{opacity:0.64;}</style></defs><g transform="translate(-616.155 -100.833)"><line class="a" x2="3.332" y2="23.021" transform="translate(620.587 198.339)"/><path class="a" d="M672.811,117.5s2.212,20.792-6.083,28.313c0,0-9.18,7.521-13.714-7.963"/><path class="a" d="M646.267,133.2s2.765,11.281.443,19.686"/><path class="a" d="M667.723,124.573s5.309,13.161.553,12.387a6.338,6.338,0,0,1-4.092-1.216"/><line class="a" y2="6.14" transform="translate(665.211 146.747)"/><path class="a" d="M642.286,151.006s16.124,10.839,27.97-1.769"/><path class="a" d="M647.4,149.237s-31.552,5.087-30.888,49.548l24.221-2.654-.332-23.89"/><path class="a" d="M665.211,148.352s15.342-3.982,29.388,21.014c0,0-5.862,11.17-8.848,12.387"/><path class="a" d="M680.553,165.937s8.1,19.848,10.132,51.675"/><line class="a" x2="1.763" y2="24.889" transform="translate(637.633 196.471)"/><path class="b" d="M671.181,105.85s15.177-4.794,14.267,4.811c0,0-8.712,12.957-28.7,4.313,0,0-.91,13.587-7.38,9.992,0,0-5.481-1.318-.955,5.825a3.686,3.686,0,0,1,.508,1.248c.313,1.563.827,5.235-.966,6.327,0,0-18.924-16.639-4-33.019C643.955,105.347,655.556,94.862,671.181,105.85Z"/><path class="c" d="M692.712,172.748s8.791,25.126,7.132,44.864"/><path class="d" d="M671.292,116.956l-4.072,7.265s3.216,8.44,3.036,10.652-1.385,2.466-3.036,2.057c0,0,1.709,8.727-3.635,10.441,0,0,11.353-2.407,9.226-29.876Z"/><path class="d" d="M663.585,147.371l-5.948,7.932a31.389,31.389,0,0,0,7.574-2.417v-6.139Z"/></g></svg>