<svg xmlns="http://www.w3.org/2000/svg" width="106.159" height="146.74" viewBox="0 0 106.159 146.74"><defs><style>.a,.f{fill:none;}.a,.c,.d{stroke:#333;stroke-width:0.7px;}.a,.c{stroke-miterlimit:10;}.b{fill:#333;}.c,.d{fill:#fff;}.e{stroke:none;}</style></defs><g transform="translate(-6824.65 -6477.65)"><g transform="translate(6373.842 6119.736)"><path class="a" d="M542.41,415.494s5.679-2.393-.895,9.431"/><path class="a" d="M489.13,498.5"/><path class="b" d="M539.243,404.682s.631,11.565,3.311,8.781V401.315Z"/><path class="a" d="M517,397.61s-3.29,55.941,24.55,53.993C550.234,448.268,551.315,363.482,517,397.61Z"/><path class="b" d="M516.938,406.892c.177.74,1.581-11.239,2.847-8.661s27.04,14.023,29.317,2.127c0,0,0-10.389-.938-20.316,0,0-15.471-13.4-29.645,8.618C518.519,388.66,514.09,395.005,516.938,406.892Z"/><path class="a" d="M537.249,413.463s-8.606,22.02-1.266,20.5a7.769,7.769,0,0,0,3.8-2.193"/><path class="a" d="M516.881,413.463s-5.337.267,1.314,8.106"/><path class="a" d="M529.185,447.547s1.3,13.341,0,17.6"/><path class="a" d="M549.816,447.547s-1.606,12.33,0,17.6"/><path class="b" d="M519.785,398.231s1.415,19.481-2.583,14.151-.108-20.57-.108-20.57Z"/><path class="b" d="M523.1,399.942s-1.459,9.36-4.224,13.149l-.416-18.007Z"/><path class="a" d="M529.185,457.66s-31.355,5.845-42.656,29.907"/><path class="a" d="M556.967,462.412"/><path class="a" d="M549.107,457.66"/><circle class="a" cx="4.869" cy="4.869" r="4.869" transform="translate(491.986 491.523)"/><path class="c" d="M542.928,358.264H458.252a6.95,6.95,0,0,0-7.094,6.8V497.507a6.95,6.95,0,0,0,7.094,6.8h84.676a6.95,6.95,0,0,0,7.094-6.8V365.061A6.95,6.95,0,0,0,542.928,358.264Zm-3.961,122.505a6.951,6.951,0,0,1-7.094,6.8H468.529a6.951,6.951,0,0,1-7.094-6.8V374.92a6.951,6.951,0,0,1,7.094-6.8h63.344a6.951,6.951,0,0,1,7.094,6.8Z"/><path class="a" d="M517,397.61"/><path class="a" d="M523.1,463.628s7.905,9.786,16.138,8.986"/></g><g class="d" transform="translate(6873 6612)"><circle class="e" cx="4.5" cy="4.5" r="4.5"/><circle class="f" cx="4.5" cy="4.5" r="4.15"/></g></g></svg>